<mxfile host="Electron" agent="Mozilla/5.0 (Windows NT 10.0; Win64; x64) AppleWebKit/537.36 (KHTML, like Gecko) draw.io/24.7.8 Chrome/128.0.6613.36 Electron/32.0.1 Safari/537.36" version="24.7.8">
  <diagram name="Page-1" id="_7sgamHb_MRyBRza6wsl">
    <mxGraphModel dx="1900" dy="621" grid="1" gridSize="10" guides="1" tooltips="1" connect="1" arrows="1" fold="1" page="1" pageScale="1" pageWidth="850" pageHeight="1100" math="0" shadow="0">
      <root>
        <mxCell id="0" />
        <mxCell id="1" parent="0" />
        <mxCell id="pmLzXCiNRRSXxM6XibxR-1" value="" style="swimlane;startSize=0;" parent="1" vertex="1">
          <mxGeometry x="120" y="160" width="750" height="990" as="geometry" />
        </mxCell>
        <mxCell id="pmLzXCiNRRSXxM6XibxR-2" value="Login" style="ellipse;whiteSpace=wrap;html=1;" parent="pmLzXCiNRRSXxM6XibxR-1" vertex="1">
          <mxGeometry x="185" y="130" width="140" height="60" as="geometry" />
        </mxCell>
        <mxCell id="pmLzXCiNRRSXxM6XibxR-3" style="edgeStyle=orthogonalEdgeStyle;rounded=0;orthogonalLoop=1;jettySize=auto;html=1;exitX=0.5;exitY=1;exitDx=0;exitDy=0;" parent="pmLzXCiNRRSXxM6XibxR-1" source="pmLzXCiNRRSXxM6XibxR-2" target="pmLzXCiNRRSXxM6XibxR-2" edge="1">
          <mxGeometry relative="1" as="geometry" />
        </mxCell>
        <mxCell id="pmLzXCiNRRSXxM6XibxR-4" value="Validate" style="ellipse;whiteSpace=wrap;html=1;" parent="pmLzXCiNRRSXxM6XibxR-1" vertex="1">
          <mxGeometry x="470" y="60" width="100" height="40" as="geometry" />
        </mxCell>
        <mxCell id="pmLzXCiNRRSXxM6XibxR-5" value="LogIn Successfully" style="ellipse;whiteSpace=wrap;html=1;" parent="pmLzXCiNRRSXxM6XibxR-1" vertex="1">
          <mxGeometry x="80" y="380" width="140" height="60" as="geometry" />
        </mxCell>
        <mxCell id="pmLzXCiNRRSXxM6XibxR-6" value="DashBoard" style="ellipse;whiteSpace=wrap;html=1;" parent="pmLzXCiNRRSXxM6XibxR-1" vertex="1">
          <mxGeometry x="185" y="240" width="140" height="60" as="geometry" />
        </mxCell>
        <mxCell id="pmLzXCiNRRSXxM6XibxR-7" value="Error" style="ellipse;whiteSpace=wrap;html=1;" parent="pmLzXCiNRRSXxM6XibxR-1" vertex="1">
          <mxGeometry x="310" y="380" width="140" height="60" as="geometry" />
        </mxCell>
        <mxCell id="pmLzXCiNRRSXxM6XibxR-8" value="" style="endArrow=none;html=1;rounded=0;" parent="pmLzXCiNRRSXxM6XibxR-1" edge="1">
          <mxGeometry width="50" height="50" relative="1" as="geometry">
            <mxPoint x="150" y="340" as="sourcePoint" />
            <mxPoint x="370" y="340" as="targetPoint" />
          </mxGeometry>
        </mxCell>
        <mxCell id="pmLzXCiNRRSXxM6XibxR-9" value="" style="endArrow=classic;html=1;rounded=0;" parent="pmLzXCiNRRSXxM6XibxR-1" edge="1">
          <mxGeometry width="50" height="50" relative="1" as="geometry">
            <mxPoint x="255" y="340" as="sourcePoint" />
            <mxPoint x="255" y="300" as="targetPoint" />
          </mxGeometry>
        </mxCell>
        <mxCell id="pmLzXCiNRRSXxM6XibxR-10" value="" style="endArrow=none;html=1;rounded=0;exitX=0.429;exitY=0;exitDx=0;exitDy=0;exitPerimeter=0;" parent="pmLzXCiNRRSXxM6XibxR-1" source="pmLzXCiNRRSXxM6XibxR-7" edge="1">
          <mxGeometry width="50" height="50" relative="1" as="geometry">
            <mxPoint x="320" y="330" as="sourcePoint" />
            <mxPoint x="370" y="340" as="targetPoint" />
          </mxGeometry>
        </mxCell>
        <mxCell id="pmLzXCiNRRSXxM6XibxR-11" value="Yes" style="text;html=1;align=center;verticalAlign=middle;whiteSpace=wrap;rounded=0;" parent="pmLzXCiNRRSXxM6XibxR-1" vertex="1">
          <mxGeometry x="160" y="310" width="60" height="30" as="geometry" />
        </mxCell>
        <mxCell id="pmLzXCiNRRSXxM6XibxR-12" value="No" style="text;html=1;align=center;verticalAlign=middle;whiteSpace=wrap;rounded=0;" parent="pmLzXCiNRRSXxM6XibxR-1" vertex="1">
          <mxGeometry x="290" y="310" width="60" height="30" as="geometry" />
        </mxCell>
        <mxCell id="pmLzXCiNRRSXxM6XibxR-13" value="&amp;lt;&amp;lt;include&amp;gt;&amp;gt;" style="endArrow=open;endSize=12;dashed=1;html=1;rounded=0;exitX=1.001;exitY=0.532;exitDx=0;exitDy=0;exitPerimeter=0;entryX=0.5;entryY=1;entryDx=0;entryDy=0;" parent="pmLzXCiNRRSXxM6XibxR-1" source="pmLzXCiNRRSXxM6XibxR-2" target="pmLzXCiNRRSXxM6XibxR-4" edge="1">
          <mxGeometry width="160" relative="1" as="geometry">
            <mxPoint x="360" y="100" as="sourcePoint" />
            <mxPoint x="520" y="100" as="targetPoint" />
          </mxGeometry>
        </mxCell>
        <mxCell id="pmLzXCiNRRSXxM6XibxR-14" value="&amp;lt;&amp;lt;include&amp;gt;&amp;gt;" style="endArrow=open;endSize=12;dashed=1;html=1;rounded=0;exitX=1;exitY=0.5;exitDx=0;exitDy=0;entryX=0;entryY=0.5;entryDx=0;entryDy=0;" parent="pmLzXCiNRRSXxM6XibxR-1" source="pmLzXCiNRRSXxM6XibxR-15" target="pmLzXCiNRRSXxM6XibxR-4" edge="1">
          <mxGeometry width="160" relative="1" as="geometry">
            <mxPoint x="335" y="102" as="sourcePoint" />
            <mxPoint x="390" y="138" as="targetPoint" />
          </mxGeometry>
        </mxCell>
        <mxCell id="pmLzXCiNRRSXxM6XibxR-15" value="Registration" style="ellipse;whiteSpace=wrap;html=1;" parent="pmLzXCiNRRSXxM6XibxR-1" vertex="1">
          <mxGeometry x="185" y="30" width="140" height="60" as="geometry" />
        </mxCell>
        <mxCell id="pmLzXCiNRRSXxM6XibxR-18" value="" style="endArrow=none;html=1;rounded=0;exitX=0.429;exitY=0;exitDx=0;exitDy=0;exitPerimeter=0;" parent="pmLzXCiNRRSXxM6XibxR-1" edge="1">
          <mxGeometry width="50" height="50" relative="1" as="geometry">
            <mxPoint x="149.65999999999997" y="380" as="sourcePoint" />
            <mxPoint x="149.65999999999997" y="340" as="targetPoint" />
          </mxGeometry>
        </mxCell>
        <mxCell id="pmLzXCiNRRSXxM6XibxR-19" value="Publish Ride" style="ellipse;whiteSpace=wrap;html=1;" parent="pmLzXCiNRRSXxM6XibxR-1" vertex="1">
          <mxGeometry x="200" y="490" width="140" height="60" as="geometry" />
        </mxCell>
        <mxCell id="pmLzXCiNRRSXxM6XibxR-20" value="Search Ride&lt;span style=&quot;color: rgba(0, 0, 0, 0); font-family: monospace; font-size: 0px; text-align: start; text-wrap: nowrap;&quot;&gt;%3CmxGraphModel%3E%3Croot%3E%3CmxCell%20id%3D%220%22%2F%3E%3CmxCell%20id%3D%221%22%20parent%3D%220%22%2F%3E%3CmxCell%20id%3D%222%22%20value%3D%22Publish%20Ride%22%20style%3D%22ellipse%3BwhiteSpace%3Dwrap%3Bhtml%3D1%3B%22%20vertex%3D%221%22%20parent%3D%221%22%3E%3CmxGeometry%20x%3D%22390%22%20y%3D%22660%22%20width%3D%22140%22%20height%3D%2260%22%20as%3D%22geometry%22%2F%3E%3C%2FmxCell%3E%3C%2Froot%3E%3C%2FmxGraphModel%3E&lt;/span&gt;&lt;span style=&quot;color: rgba(0, 0, 0, 0); font-family: monospace; font-size: 0px; text-align: start; text-wrap: nowrap;&quot;&gt;%3CmxGraphModel%3E%3Croot%3E%3CmxCell%20id%3D%220%22%2F%3E%3CmxCell%20id%3D%221%22%20parent%3D%220%22%2F%3E%3CmxCell%20id%3D%222%22%20value%3D%22Publish%20Ride%22%20style%3D%22ellipse%3BwhiteSpace%3Dwrap%3Bhtml%3D1%3B%22%20vertex%3D%221%22%20parent%3D%221%22%3E%3CmxGeometry%20x%3D%22390%22%20y%3D%22660%22%20width%3D%22140%22%20height%3D%2260%22%20as%3D%22geometry%22%2F%3E%3C%2FmxCell%3E%3C%2Froot%3E%3C%2FmxGraphModel%3E&lt;/span&gt;" style="ellipse;whiteSpace=wrap;html=1;" parent="pmLzXCiNRRSXxM6XibxR-1" vertex="1">
          <mxGeometry x="200" y="570" width="140" height="60" as="geometry" />
        </mxCell>
        <mxCell id="pmLzXCiNRRSXxM6XibxR-21" value="Book Ride" style="ellipse;whiteSpace=wrap;html=1;" parent="pmLzXCiNRRSXxM6XibxR-1" vertex="1">
          <mxGeometry x="200" y="650" width="140" height="60" as="geometry" />
        </mxCell>
        <mxCell id="pmLzXCiNRRSXxM6XibxR-22" value="Payment" style="ellipse;whiteSpace=wrap;html=1;" parent="pmLzXCiNRRSXxM6XibxR-1" vertex="1">
          <mxGeometry x="205" y="750" width="140" height="60" as="geometry" />
        </mxCell>
        <mxCell id="pmLzXCiNRRSXxM6XibxR-23" value="Cash Payment" style="ellipse;whiteSpace=wrap;html=1;" parent="pmLzXCiNRRSXxM6XibxR-1" vertex="1">
          <mxGeometry x="459.00398601398604" y="720.004827586207" width="154.6853146853147" height="80.68965517241384" as="geometry" />
        </mxCell>
        <mxCell id="pmLzXCiNRRSXxM6XibxR-24" value="" style="endArrow=classic;html=1;rounded=0;exitX=1;exitY=0.5;exitDx=0;exitDy=0;entryX=0;entryY=0.5;entryDx=0;entryDy=0;dashed=1;" parent="pmLzXCiNRRSXxM6XibxR-1" source="pmLzXCiNRRSXxM6XibxR-22" target="pmLzXCiNRRSXxM6XibxR-23" edge="1">
          <mxGeometry width="50" height="50" relative="1" as="geometry">
            <mxPoint x="390" y="774.31" as="sourcePoint" />
            <mxPoint x="449" y="699.31" as="targetPoint" />
          </mxGeometry>
        </mxCell>
        <mxCell id="pmLzXCiNRRSXxM6XibxR-25" value="&amp;lt;&amp;lt;include&amp;gt;&amp;gt;" style="text;html=1;align=center;verticalAlign=middle;whiteSpace=wrap;rounded=0;" parent="pmLzXCiNRRSXxM6XibxR-1" vertex="1">
          <mxGeometry x="360" y="745.3499999999999" width="60" height="30" as="geometry" />
        </mxCell>
        <mxCell id="pmLzXCiNRRSXxM6XibxR-26" value="Cancel Ride" style="ellipse;whiteSpace=wrap;html=1;" parent="pmLzXCiNRRSXxM6XibxR-1" vertex="1">
          <mxGeometry x="200" y="840" width="140" height="60" as="geometry" />
        </mxCell>
        <mxCell id="pmLzXCiNRRSXxM6XibxR-17" value="Customer" style="shape=umlActor;verticalLabelPosition=bottom;verticalAlign=top;html=1;outlineConnect=0;" parent="1" vertex="1">
          <mxGeometry x="-20" y="400" width="30" height="60" as="geometry" />
        </mxCell>
        <mxCell id="pmLzXCiNRRSXxM6XibxR-28" value="Driver" style="shape=umlActor;verticalLabelPosition=bottom;verticalAlign=top;html=1;outlineConnect=0;" parent="1" vertex="1">
          <mxGeometry x="1030" y="180" width="30" height="60" as="geometry" />
        </mxCell>
        <mxCell id="pmLzXCiNRRSXxM6XibxR-29" value="" style="endArrow=none;html=1;rounded=0;entryX=0;entryY=0.3333333333333333;entryDx=0;entryDy=0;entryPerimeter=0;exitX=1;exitY=0.5;exitDx=0;exitDy=0;" parent="1" source="pmLzXCiNRRSXxM6XibxR-15" target="pmLzXCiNRRSXxM6XibxR-28" edge="1">
          <mxGeometry width="50" height="50" relative="1" as="geometry">
            <mxPoint x="610" y="590" as="sourcePoint" />
            <mxPoint x="660" y="540" as="targetPoint" />
          </mxGeometry>
        </mxCell>
        <mxCell id="pmLzXCiNRRSXxM6XibxR-30" value="" style="endArrow=none;html=1;rounded=0;exitX=1;exitY=0.5;exitDx=0;exitDy=0;entryX=0;entryY=0.3333333333333333;entryDx=0;entryDy=0;entryPerimeter=0;" parent="1" source="pmLzXCiNRRSXxM6XibxR-2" target="pmLzXCiNRRSXxM6XibxR-28" edge="1">
          <mxGeometry width="50" height="50" relative="1" as="geometry">
            <mxPoint x="455" y="230" as="sourcePoint" />
            <mxPoint x="1030" y="200" as="targetPoint" />
          </mxGeometry>
        </mxCell>
        <mxCell id="pmLzXCiNRRSXxM6XibxR-40" value="" style="endArrow=none;html=1;rounded=0;exitX=1;exitY=0.5;exitDx=0;exitDy=0;entryX=0;entryY=0.3333333333333333;entryDx=0;entryDy=0;entryPerimeter=0;" parent="1" source="pmLzXCiNRRSXxM6XibxR-6" target="pmLzXCiNRRSXxM6XibxR-28" edge="1">
          <mxGeometry width="50" height="50" relative="1" as="geometry">
            <mxPoint x="545" y="420" as="sourcePoint" />
            <mxPoint x="1130" y="300" as="targetPoint" />
          </mxGeometry>
        </mxCell>
        <mxCell id="pmLzXCiNRRSXxM6XibxR-41" value="" style="endArrow=none;html=1;rounded=0;exitX=1;exitY=0.5;exitDx=0;exitDy=0;entryX=0;entryY=0.3333333333333333;entryDx=0;entryDy=0;entryPerimeter=0;" parent="1" source="pmLzXCiNRRSXxM6XibxR-19" target="pmLzXCiNRRSXxM6XibxR-28" edge="1">
          <mxGeometry width="50" height="50" relative="1" as="geometry">
            <mxPoint x="455" y="440" as="sourcePoint" />
            <mxPoint x="1040" y="210" as="targetPoint" />
          </mxGeometry>
        </mxCell>
        <mxCell id="pmLzXCiNRRSXxM6XibxR-42" value="" style="endArrow=none;html=1;rounded=0;exitX=1;exitY=0.5;exitDx=0;exitDy=0;entryX=0;entryY=0.3333333333333333;entryDx=0;entryDy=0;entryPerimeter=0;" parent="1" source="pmLzXCiNRRSXxM6XibxR-23" target="pmLzXCiNRRSXxM6XibxR-28" edge="1">
          <mxGeometry width="50" height="50" relative="1" as="geometry">
            <mxPoint x="470" y="690" as="sourcePoint" />
            <mxPoint x="1040" y="210" as="targetPoint" />
          </mxGeometry>
        </mxCell>
        <mxCell id="pmLzXCiNRRSXxM6XibxR-43" value="" style="endArrow=none;html=1;rounded=0;exitX=0;exitY=0.5;exitDx=0;exitDy=0;entryX=1;entryY=0.3333333333333333;entryDx=0;entryDy=0;entryPerimeter=0;" parent="1" source="pmLzXCiNRRSXxM6XibxR-2" target="pmLzXCiNRRSXxM6XibxR-17" edge="1">
          <mxGeometry width="50" height="50" relative="1" as="geometry">
            <mxPoint x="744" y="930" as="sourcePoint" />
            <mxPoint x="1040" y="210" as="targetPoint" />
          </mxGeometry>
        </mxCell>
        <mxCell id="pmLzXCiNRRSXxM6XibxR-44" value="" style="endArrow=none;html=1;rounded=0;exitX=0;exitY=0.5;exitDx=0;exitDy=0;entryX=1;entryY=0.3333333333333333;entryDx=0;entryDy=0;entryPerimeter=0;" parent="1" source="pmLzXCiNRRSXxM6XibxR-6" target="pmLzXCiNRRSXxM6XibxR-17" edge="1">
          <mxGeometry width="50" height="50" relative="1" as="geometry">
            <mxPoint x="315" y="330" as="sourcePoint" />
            <mxPoint x="60" y="430" as="targetPoint" />
          </mxGeometry>
        </mxCell>
        <mxCell id="pmLzXCiNRRSXxM6XibxR-46" value="" style="endArrow=none;html=1;rounded=0;exitX=0;exitY=0.5;exitDx=0;exitDy=0;entryX=1;entryY=0.3333333333333333;entryDx=0;entryDy=0;entryPerimeter=0;" parent="1" source="pmLzXCiNRRSXxM6XibxR-20" target="pmLzXCiNRRSXxM6XibxR-17" edge="1">
          <mxGeometry width="50" height="50" relative="1" as="geometry">
            <mxPoint x="315" y="440" as="sourcePoint" />
            <mxPoint x="60" y="430" as="targetPoint" />
            <Array as="points">
              <mxPoint x="180" y="600" />
            </Array>
          </mxGeometry>
        </mxCell>
        <mxCell id="pmLzXCiNRRSXxM6XibxR-47" value="" style="endArrow=none;html=1;rounded=0;exitX=0;exitY=0.5;exitDx=0;exitDy=0;entryX=1;entryY=0.3333333333333333;entryDx=0;entryDy=0;entryPerimeter=0;" parent="1" source="pmLzXCiNRRSXxM6XibxR-21" target="pmLzXCiNRRSXxM6XibxR-17" edge="1">
          <mxGeometry width="50" height="50" relative="1" as="geometry">
            <mxPoint x="315" y="440" as="sourcePoint" />
            <mxPoint x="60" y="430" as="targetPoint" />
            <Array as="points" />
          </mxGeometry>
        </mxCell>
        <mxCell id="pmLzXCiNRRSXxM6XibxR-48" value="" style="endArrow=none;html=1;rounded=0;exitX=0;exitY=0.5;exitDx=0;exitDy=0;entryX=1;entryY=0.3333333333333333;entryDx=0;entryDy=0;entryPerimeter=0;" parent="1" source="pmLzXCiNRRSXxM6XibxR-22" target="pmLzXCiNRRSXxM6XibxR-17" edge="1">
          <mxGeometry width="50" height="50" relative="1" as="geometry">
            <mxPoint x="330" y="850" as="sourcePoint" />
            <mxPoint x="60" y="420" as="targetPoint" />
            <Array as="points" />
          </mxGeometry>
        </mxCell>
        <mxCell id="pmLzXCiNRRSXxM6XibxR-16" value="" style="endArrow=none;html=1;rounded=0;entryX=0;entryY=0.5;entryDx=0;entryDy=0;exitX=1;exitY=0.3333333333333333;exitDx=0;exitDy=0;exitPerimeter=0;" parent="1" source="pmLzXCiNRRSXxM6XibxR-17" target="pmLzXCiNRRSXxM6XibxR-15" edge="1">
          <mxGeometry width="50" height="50" relative="1" as="geometry">
            <mxPoint x="50" y="420" as="sourcePoint" />
            <mxPoint x="315" y="220" as="targetPoint" />
          </mxGeometry>
        </mxCell>
        <mxCell id="pmLzXCiNRRSXxM6XibxR-50" value="" style="endArrow=none;html=1;rounded=0;exitX=0;exitY=0.5;exitDx=0;exitDy=0;entryX=1;entryY=0.3333333333333333;entryDx=0;entryDy=0;entryPerimeter=0;" parent="1" source="pmLzXCiNRRSXxM6XibxR-26" target="pmLzXCiNRRSXxM6XibxR-17" edge="1">
          <mxGeometry width="50" height="50" relative="1" as="geometry">
            <mxPoint x="335" y="950" as="sourcePoint" />
            <mxPoint x="20" y="430" as="targetPoint" />
            <Array as="points" />
          </mxGeometry>
        </mxCell>
        <mxCell id="pmLzXCiNRRSXxM6XibxR-51" value="&lt;font style=&quot;font-size: 25px;&quot;&gt;Use Case Main&amp;nbsp;&lt;/font&gt;&lt;div style=&quot;font-size: 25px;&quot;&gt;&lt;br&gt;&lt;/div&gt;" style="text;html=1;align=center;verticalAlign=middle;whiteSpace=wrap;rounded=0;" parent="1" vertex="1">
          <mxGeometry x="298" y="40" width="255" height="30" as="geometry" />
        </mxCell>
      </root>
    </mxGraphModel>
  </diagram>
</mxfile>
